<?xml version="1.0" encoding="utf-8"?>
<!-- Generator: Adobe Illustrator 27.7.0, SVG Export Plug-In . SVG Version: 6.00 Build 0)  -->
<svg version="1.1" id="Camada_1" xmlns="http://www.w3.org/2000/svg" xmlns:xlink="http://www.w3.org/1999/xlink" x="0px" y="0px"
	 viewBox="0 0 735.97 349.48" style="enable-background:new 0 0 735.97 349.48;" xml:space="preserve">
<style type="text/css">
	.st0{fill:#404040;}
	.st1{fill:#F2F2F2;}
	.st2{fill:url(#SVGID_1_);}
	.st3{fill:url(#SVGID_00000110433323907886177720000016033786722877811633_);}
	.st4{fill:url(#SVGID_00000125601373623839891610000000128857934478818445_);}
	.st5{fill:url(#SVGID_00000011013658508255465870000013522796894720117905_);}
	.st6{fill:url(#SVGID_00000137104911206684522610000002647111583354164368_);}
	.st7{fill:url(#SVGID_00000070824998495587595930000001047342054787010236_);}
	.st8{fill:url(#SVGID_00000114057174032597914890000003610816577886396051_);}
	.st9{fill:url(#SVGID_00000026147027384739920830000008257864628895144834_);}
	.st10{fill:url(#SVGID_00000160168989943600165340000007882668836297076119_);}
	.st11{fill:url(#SVGID_00000023965347452763814110000013193623682912973447_);}
	.st12{fill:url(#SVGID_00000134962779889140970800000006244888387081376937_);}
	.st13{fill:url(#SVGID_00000115494630907297800160000000026045853386949781_);}
	.st14{fill:url(#SVGID_00000101072624615402747380000005292825644129391280_);}
	.st15{fill:url(#SVGID_00000176755024788490909100000009845208745957066152_);}
	.st16{fill:url(#SVGID_00000075160500520669894110000009654336941796761216_);}
	.st17{fill:url(#SVGID_00000028322582916127972900000000279749574361621390_);}
	.st18{fill:url(#SVGID_00000118376843945342506180000013029435780183985543_);}
	.st19{fill:url(#SVGID_00000028300143988029072820000016481227580827079083_);}
	.st20{fill:url(#SVGID_00000122679135453444612900000010151688149945058226_);}
	.st21{fill:url(#SVGID_00000179608973467157996320000011535252542353926288_);}
	.st22{fill:url(#SVGID_00000018928329673434255950000015625880234478329732_);}
	.st23{fill:url(#SVGID_00000176729877396677253270000000535422827829314710_);}
	.st24{fill:url(#SVGID_00000039821178105761298960000009743370701029545657_);}
	.st25{fill:url(#SVGID_00000018212523793959479920000010753547507602891652_);}
</style>
<g>
	<g>
		<g>
			<path class="st0" d="M267.29,247.02v42.94c0,2.92-2.04,4.95-4.96,4.95c-2.92,0-4.96-2.03-4.96-4.95v-42.94
				c0-14.15-11.51-25.65-25.65-25.65c-14.14,0-25.65,11.5-25.65,25.65v42.94c0,2.92-2.04,4.95-4.97,4.95
				c-2.92,0-4.95-2.03-4.95-4.95v-42.94c0-19.62,15.96-35.57,35.57-35.57C251.33,211.45,267.29,227.4,267.29,247.02z"/>
		</g>
		<g>
			<path class="st0" d="M175.49,222.09v67.87c0,2.55-2.41,4.95-4.96,4.95c-2.55,0-4.96-2.4-4.96-4.95v-67.87
				c0-2.55,2.41-4.96,4.96-4.96C173.08,217.13,175.49,219.54,175.49,222.09z"/>
		</g>
		<g>
			<path class="st0" d="M176.64,198.42c0,3.25-2.86,6.11-6.11,6.11c-3.25,0-6.11-2.85-6.11-6.11c0-3.25,2.85-6.12,6.11-6.12
				C173.78,192.3,176.64,195.16,176.64,198.42z"/>
		</g>
		<g>
			<path class="st0" d="M351.39,285.78c0.37,0.45,3.55,4.5-0.12,7.62c-1.07,0.92-2.1,1.38-3.05,1.38c-2.26,0-4.08-2.57-4.09-2.6
				l-0.09-0.13l-0.1-0.13l-21.47-27.08l-3.22-4.06l-3.26,4.02c-3.52,4.33-13.32,16.51-18.59,23.05c-2.08,2.59-3.5,4.35-3.61,4.47
				l-0.06,0.07l-0.03,0.03c-0.14,0.16-2.12,2.49-4.36,2.49c-0.9,0-1.79-0.38-2.73-1.17c-1.9-1.61-1.97-2.94-2-3.38
				c-0.1-1.85,1.24-3.71,1.75-4.25l0.15-0.15l0.12-0.16c0.38-0.48,20.06-25,24.34-30.32l2.08-2.58l-2.06-2.6l-23.53-29.76
				l-0.03-0.04l-0.03-0.03c-0.37-0.45-3.55-4.51,0.12-7.63c1.08-0.91,2.11-1.38,3.06-1.38c2.24,0,4.07,2.57,4.07,2.57l0.1,0.15
				l0.11,0.13l21.09,26.74l3.24,4.11l3.27-4.09c1.03-1.28,3.05-3.8,3.07-3.83l18.34-23.23l0.02-0.02l0.03-0.05
				c0.01-0.03,2.05-2.57,4.38-2.57c0.89,0,1.77,0.37,2.71,1.14c1.92,1.57,2.01,2.9,2.04,3.34c0.12,1.85-1.19,3.74-1.71,4.31
				l-0.11,0.11l-0.1,0.13l-23.73,29.99l-2.04,2.58l2.05,2.58l23.94,30.17L351.39,285.78z"/>
		</g>
		<g>
			<path class="st0" d="M149.42,289.05c0,2.71-2.2,4.9-4.9,4.9h-3.88c-12.29,0-22.12-3.69-29.21-10.97
				c-11.24-11.52-11.29-27.73-11.25-29.54v-56.02c0-2.7,2.2-4.9,4.9-4.9c2.7,0,4.9,2.2,4.9,4.9v56.11c0,0.84,0.07,14.05,8.52,22.66
				c5.18,5.29,12.63,7.96,22.15,7.96h3.88C147.22,284.16,149.42,286.35,149.42,289.05z"/>
		</g>
	</g>
	<g>
		<linearGradient id="SVGID_1_" gradientUnits="userSpaceOnUse" x1="62.0977" y1="134.5536" x2="658.0524" y2="134.5536">
			<stop  offset="0" style="stop-color:#FFB900"/>
			<stop  offset="0.7848" style="stop-color:#FF5A1E"/>
			<stop  offset="0.9951" style="stop-color:#FF4026"/>
		</linearGradient>
		<path class="st2" d="M184.7,98.5h-5.21c-4.62,0-9.33,0.83-12.61,3.33c-3.32,2.53-5.15,4.13-6.84,7.19l-1.34,2.44v-8.31
			c0-1.09-0.46-1.96-1.39-2.64c-1-0.72-2.25-1.09-3.72-1.09c-1.68,0-3.07,0.37-4.11,1.1c-0.98,0.68-1.45,1.54-1.45,2.63v63.58
			c0,0.91,0.49,1.76,1.5,2.59c1.04,0.86,2.4,1.29,4.07,1.29c1.59,0,2.93-0.43,4.09-1.31c1.1-0.84,1.63-1.68,1.63-2.57V131.8
			c0-3.55,0.58-6.81,1.74-9.69c1.15-2.88,2.67-5.35,4.5-7.34c1.84-2,4.01-3.55,6.44-4.61c2.43-1.06,4.95-1.59,7.49-1.59h5.21
			c1.12,0,2.07-0.47,2.91-1.44c0.86-1,1.28-2.15,1.28-3.52c0-1.37-0.42-2.55-1.29-3.61C186.76,98.99,185.81,98.5,184.7,98.5z"/>
		
			<linearGradient id="SVGID_00000081642715427325926740000000230775084057683334_" gradientUnits="userSpaceOnUse" x1="62.0977" y1="151.1998" x2="658.0524" y2="151.1998">
			<stop  offset="0" style="stop-color:#FFB900"/>
			<stop  offset="0.7848" style="stop-color:#FF5A1E"/>
			<stop  offset="0.9951" style="stop-color:#FF4026"/>
		</linearGradient>
		<path style="fill:url(#SVGID_00000081642715427325926740000000230775084057683334_);" d="M397.11,100.48
			c-1.03-0.72-2.34-1.08-3.89-1.08c-1.55,0-2.83,0.36-3.81,1.07c-0.92,0.67-1.37,1.52-1.37,2.6v8.75l-1.31-2.22
			c-1.65-2.81-4.16-5.39-7.48-7.69c-3.28-2.27-7.36-3.42-12.1-3.42c-3.7,0-7.17,0.74-10.33,2.2c-3.16,1.46-5.98,3.51-8.37,6.09
			c-2.39,2.58-4.3,5.63-5.66,9.05c-1.37,3.41-2.06,7.07-2.06,10.89v15.37c0,3.71,0.72,7.32,2.13,10.73c1.42,3.42,3.33,6.5,5.68,9.14
			c2.34,2.64,5.11,4.76,8.22,6.32c3.1,1.55,6.39,2.34,9.78,2.34c4.46,0,8.48-1.15,11.97-3.43c3.49-2.28,6.05-4.95,7.59-7.94
			l1.32-2.56v43.41c0,0.88,0.52,1.71,1.61,2.53c1.14,0.87,2.46,1.29,4.02,1.29c1.63,0,2.98-0.43,4-1.27
			c0.99-0.82,1.48-1.66,1.48-2.55v-97.01C398.54,102,398.07,101.15,397.11,100.48z M387.44,146.15c0,1.13-0.45,2.5-1.37,4.18
			c-0.88,1.61-2.11,3.21-3.66,4.75c-1.56,1.56-3.44,2.89-5.61,3.97c-2.19,1.1-4.58,1.66-7.09,1.66c-2.41,0-4.72-0.53-6.86-1.58
			c-2.13-1.03-4.05-2.45-5.7-4.22c-1.66-1.76-2.97-3.75-3.9-5.93c-0.94-2.19-1.41-4.51-1.41-6.91v-15.37c0-2.29,0.48-4.57,1.41-6.75
			c0.93-2.18,2.25-4.15,3.91-5.86c1.65-1.71,3.6-3.1,5.78-4.14c4.12-1.96,9.09-2.1,13.45-0.32c2.03,0.84,3.9,2.05,5.56,3.6
			c1.67,1.56,3.02,3.52,4.01,5.81c0.99,2.29,1.49,4.87,1.49,7.66V146.15z"/>
		
			<linearGradient id="SVGID_00000055706565847032264570000011110518912311929006_" gradientUnits="userSpaceOnUse" x1="62.0977" y1="134.5536" x2="658.0524" y2="134.5536">
			<stop  offset="0" style="stop-color:#FFB900"/>
			<stop  offset="0.7848" style="stop-color:#FF5A1E"/>
			<stop  offset="0.9951" style="stop-color:#FF4026"/>
		</linearGradient>
		<path style="fill:url(#SVGID_00000055706565847032264570000011110518912311929006_);" d="M633.21,140.75
			c-1.74-2.56-3.97-4.64-6.63-6.19c-2.7-1.57-5.64-2.79-8.72-3.62c-3.14-0.84-6.14-1.73-8.92-2.64c-2.82-0.92-5.19-2.07-7.05-3.41
			c-1.99-1.44-3-3.6-3-6.44c0-1.19,0.27-2.47,0.8-3.8c0.53-1.34,1.37-2.58,2.49-3.7c1.12-1.12,2.63-2.04,4.47-2.72
			c1.83-0.68,4.06-1.02,6.65-1.02c2.26,0,4.3,0.24,6.05,0.7c1.73,0.46,3.26,0.98,4.55,1.54c1.26,0.56,2.37,1.06,3.33,1.51
			c1.66,0.79,2.71,0.82,3.82,0.06c0.56-0.39,1.02-0.89,1.37-1.5c0.38-0.67,0.69-1.34,0.93-2c0.22-0.63,0.34-1.16,0.34-1.57
			c0-0.78-0.52-1.61-1.56-2.48c-1.14-0.95-2.69-1.8-4.62-2.52c-1.97-0.74-4.23-1.33-6.73-1.77c-2.51-0.44-5.08-0.67-7.64-0.67
			c-4.4,0-8.19,0.62-11.27,1.83c-3.06,1.21-5.56,2.81-7.44,4.73c-1.88,1.93-3.24,4.12-4.06,6.51c-0.83,2.43-1.24,4.88-1.24,7.31
			c0,4.04,0.86,7.22,2.57,9.44c1.74,2.27,3.94,4.13,6.55,5.53c2.65,1.42,5.59,2.54,8.73,3.33c3.24,0.81,6.26,1.76,8.97,2.81
			c2.78,1.08,5.14,2.5,7,4.2c1.95,1.79,2.94,4.32,2.94,7.52c0,2.6-1.11,4.97-3.31,7.06c-2.22,2.11-6.04,3.13-11.71,3.13
			c-3.38,0-6.22-0.39-8.44-1.17c-2.2-0.77-4.06-1.59-5.55-2.47c-1.47-0.86-2.69-1.69-3.63-2.48c-0.77-0.64-1.53-0.97-2.26-0.97
			c-1.05,0-1.89,0.55-2.56,1.69c-0.74,1.24-1.11,2.36-1.11,3.33c0,1.12,0.55,2.31,1.63,3.53c1.14,1.28,2.79,2.47,4.91,3.53
			c2.14,1.08,4.73,1.97,7.68,2.66c2.96,0.69,6.25,1.04,9.78,1.04c7.93,0,14.06-1.77,18.23-5.26c4.13-3.46,6.23-8.25,6.23-14.23
			C635.8,146.77,634.93,143.28,633.21,140.75z"/>
		
			<linearGradient id="SVGID_00000016795230142593023370000015527489548788010123_" gradientUnits="userSpaceOnUse" x1="62.0977" y1="134.4352" x2="658.0524" y2="134.4352">
			<stop  offset="0" style="stop-color:#FFB900"/>
			<stop  offset="0.7848" style="stop-color:#FF5A1E"/>
			<stop  offset="0.9951" style="stop-color:#FF4026"/>
		</linearGradient>
		<path style="fill:url(#SVGID_00000016795230142593023370000015527489548788010123_);" d="M495.21,99.69
			c-1.16,1.06-1.8,2.55-1.8,4.2v20.94v26.03v14.11c0,1.65,0.64,3.14,1.79,4.2c2.26,2.07,5.65,2.07,7.9,0c1.16-1.06,1.8-2.55,1.8-4.2
			v-14.11v-26.03V103.9c0-1.65-0.64-3.14-1.79-4.2C500.85,97.63,497.45,97.63,495.21,99.69z"/>
		
			<linearGradient id="SVGID_00000069397421155668618590000015964633391702338981_" gradientUnits="userSpaceOnUse" x1="62.0977" y1="80.8984" x2="658.0524" y2="80.8984">
			<stop  offset="0" style="stop-color:#FFB900"/>
			<stop  offset="0.7848" style="stop-color:#FF5A1E"/>
			<stop  offset="0.9951" style="stop-color:#FF4026"/>
		</linearGradient>
		<path style="fill:url(#SVGID_00000069397421155668618590000015964633391702338981_);" d="M499.15,86.52
			c3.11,0,5.63-2.52,5.63-5.63c0-3.11-2.52-5.63-5.63-5.63c-3.11,0-5.63,2.52-5.63,5.63C493.52,84.01,496.04,86.52,499.15,86.52z"/>
		
			<linearGradient id="SVGID_00000179633277804503508520000002927925002524055201_" gradientUnits="userSpaceOnUse" x1="62.0977" y1="134.5054" x2="658.0524" y2="134.5054">
			<stop  offset="0" style="stop-color:#FFB900"/>
			<stop  offset="0.7848" style="stop-color:#FF5A1E"/>
			<stop  offset="0.9951" style="stop-color:#FF4026"/>
		</linearGradient>
		<path style="fill:url(#SVGID_00000179633277804503508520000002927925002524055201_);" d="M472.65,98.4
			c-2.85,0-5.17,2.32-5.17,5.17v35.78c0,11.53-9.38,20.91-20.91,20.91c-11.53,0-20.91-9.38-20.91-20.91v-35.78
			c0-2.85-2.32-5.17-5.17-5.17c-2.85,0-5.17,2.32-5.17,5.17v35.78c0,17.23,14.02,31.26,31.26,31.26s31.26-14.02,31.26-31.26v-35.78
			C477.83,100.72,475.51,98.4,472.65,98.4z"/>
		
			<linearGradient id="SVGID_00000077284629918302912740000010354880741020037772_" gradientUnits="userSpaceOnUse" x1="62.0977" y1="134.5536" x2="658.0524" y2="134.5536">
			<stop  offset="0" style="stop-color:#FFB900"/>
			<stop  offset="0.7848" style="stop-color:#FF5A1E"/>
			<stop  offset="0.9951" style="stop-color:#FF4026"/>
		</linearGradient>
		<path style="fill:url(#SVGID_00000077284629918302912740000010354880741020037772_);" d="M295.26,98.5
			c-17.03,0-30.88,13.86-30.88,30.89v36.03c0,3.01,2.18,5.19,5.2,5.19c3.02,0,5.21-2.18,5.21-5.19v-36.03
			c0-11.29,9.19-20.48,20.48-20.48c11.29,0,20.48,9.19,20.48,20.48v36.03c0,3.01,2.19,5.19,5.2,5.19c3.01,0,5.2-2.18,5.2-5.19
			v-36.03C326.14,112.35,312.29,98.5,295.26,98.5z"/>
		
			<linearGradient id="SVGID_00000016065010310879897930000013613236178198776488_" gradientUnits="userSpaceOnUse" x1="62.0977" y1="112.5879" x2="658.0524" y2="112.5879">
			<stop  offset="0" style="stop-color:#FFB900"/>
			<stop  offset="0.7848" style="stop-color:#FF5A1E"/>
			<stop  offset="0.9951" style="stop-color:#FF4026"/>
		</linearGradient>
		<path style="fill:url(#SVGID_00000016065010310879897930000013613236178198776488_);" d="M155.26,71.12
			c0.62-0.57,1.15-1.25,1.57-2.03c0.41-0.77,0.72-1.58,0.93-2.41c0.21-0.84,0.31-1.5,0.31-2.02c0-1.37-0.74-2.7-2.2-3.96
			c-1.43-1.23-3.32-2.31-5.61-3.23c-2.28-0.91-4.88-1.63-7.73-2.14c-2.85-0.51-5.78-0.76-8.71-0.76c-5.38,0-10.19,0.88-14.31,2.6
			c-4.12,1.73-7.64,4.02-10.48,6.81c-2.85,2.8-5.04,6.07-6.51,9.73c-1.47,3.66-2.22,7.47-2.22,11.34V166c0,1.38,0.62,2.52,1.83,3.36
			c1.19,0.83,2.69,1.26,4.45,1.26c1.76,0,3.33-0.42,4.67-1.25c1.38-0.85,2.07-1.98,2.07-3.37v-57.62h18.06
			c1.28,0,2.31-0.51,3.05-1.53c0.74-1.01,1.1-2.17,1.1-3.54c0-1.37-0.36-2.55-1.1-3.62c-0.75-1.06-1.78-1.6-3.05-1.6h-18.06v-13.5
			c0-2.2,0.38-4.43,1.13-6.63c0.75-2.2,1.96-4.19,3.61-5.94c1.65-1.75,3.82-3.19,6.47-4.29c2.65-1.1,5.88-1.66,9.59-1.66
			c3.01,0,5.57,0.3,7.63,0.9c2.05,0.6,3.81,1.29,5.21,2.04c1.42,0.76,2.59,1.45,3.48,2.04C152.24,72.25,153.91,72.36,155.26,71.12z"
			/>
		
			<linearGradient id="SVGID_00000045580964450397443280000016583214528862776480_" gradientUnits="userSpaceOnUse" x1="62.0977" y1="134.4523" x2="658.0524" y2="134.4523">
			<stop  offset="0" style="stop-color:#FFB900"/>
			<stop  offset="0.7848" style="stop-color:#FF5A1E"/>
			<stop  offset="0.9951" style="stop-color:#FF4026"/>
		</linearGradient>
		<path style="fill:url(#SVGID_00000045580964450397443280000016583214528862776480_);" d="M246.62,129.72
			c-2.61,0-4.73,2.12-4.73,4.73c0,2.61,2.12,4.73,4.73,4.73c2.61,0,4.73-2.12,4.73-4.73C251.35,131.84,249.24,129.72,246.62,129.72z
			"/>
		
			<linearGradient id="SVGID_00000182509836529220436550000005012247397779296430_" gradientUnits="userSpaceOnUse" x1="62.0977" y1="134.4522" x2="658.0524" y2="134.4522">
			<stop  offset="0" style="stop-color:#FFB900"/>
			<stop  offset="0.7848" style="stop-color:#FF5A1E"/>
			<stop  offset="0.9951" style="stop-color:#FF4026"/>
		</linearGradient>
		<path style="fill:url(#SVGID_00000182509836529220436550000005012247397779296430_);" d="M246.59,145.23h-1.47
			c-2.02,0-3.79,1.28-4.48,3.17c-2.89,7.89-10.77,13.38-19.81,12.61c-10.06-0.87-17.6-9.66-17.6-19.76v-13.59
			c0-10.1,7.54-18.89,17.6-19.76c9.04-0.78,16.92,4.72,19.81,12.61c0.69,1.89,2.47,3.17,4.48,3.17c3.3,0,5.62-3.28,4.49-6.38
			c-4.11-11.31-15.11-19.35-27.9-18.99c-15.71,0.44-28.01,13.79-28.01,29.51v13.27c0,15.75,12.33,29.12,28.07,29.52
			c7.47,0.19,14.56-2.45,20.05-7.42v1.56c0,2.28,1.54,4.35,3.77,4.8c3.06,0.63,5.77-1.71,5.77-4.66v-14.89
			C251.35,147.36,249.22,145.23,246.59,145.23z"/>
		
			<linearGradient id="SVGID_00000044171161484885132510000003986036189235788710_" gradientUnits="userSpaceOnUse" x1="62.0977" y1="134.4523" x2="658.0524" y2="134.4523">
			<stop  offset="0" style="stop-color:#FFB900"/>
			<stop  offset="0.7848" style="stop-color:#FF5A1E"/>
			<stop  offset="0.9951" style="stop-color:#FF4026"/>
		</linearGradient>
		<path style="fill:url(#SVGID_00000044171161484885132510000003986036189235788710_);" d="M570.26,129.72
			c-2.61,0-4.73,2.12-4.73,4.73c0,2.61,2.12,4.73,4.73,4.73c2.61,0,4.73-2.12,4.73-4.73C574.99,131.84,572.87,129.72,570.26,129.72z
			"/>
		
			<linearGradient id="SVGID_00000115505558991741680290000008938997059506874525_" gradientUnits="userSpaceOnUse" x1="62.0977" y1="134.4522" x2="658.0524" y2="134.4522">
			<stop  offset="0" style="stop-color:#FFB900"/>
			<stop  offset="0.7848" style="stop-color:#FF5A1E"/>
			<stop  offset="0.9951" style="stop-color:#FF4026"/>
		</linearGradient>
		<path style="fill:url(#SVGID_00000115505558991741680290000008938997059506874525_);" d="M570.22,145.23h-1.47
			c-2.02,0-3.79,1.28-4.48,3.17c-2.89,7.89-10.77,13.38-19.81,12.61c-10.06-0.87-17.6-9.66-17.6-19.76v-13.59
			c0-10.1,7.54-18.89,17.6-19.76c9.04-0.78,16.92,4.72,19.81,12.61c0.69,1.89,2.47,3.17,4.48,3.17c3.3,0,5.62-3.28,4.49-6.38
			c-4.11-11.31-15.11-19.35-27.91-18.99c-15.71,0.44-28.01,13.79-28.01,29.51v13.27c0,15.75,12.33,29.12,28.07,29.52
			c7.47,0.19,14.56-2.45,20.05-7.42v1.56c0,2.28,1.54,4.35,3.77,4.8c3.06,0.63,5.77-1.71,5.77-4.66v-14.89
			C574.99,147.36,572.86,145.23,570.22,145.23z"/>
	</g>
</g>
</svg>
